<?xml version="1.0" encoding="utf-8"?>
<svg xmlns="http://www.w3.org/2000/svg" viewBox="-6.653 -0.458 53.614 56.61">
  <path
    d="M 31.188 13.909 C 26.725 10.399 23.894 5.5 22.424 2.615 L 21.69 1.064 C 21.546 0.766 21.123 0.765 20.978 1.062 L 20.737 1.554 L 20.193 2.724 C 18.723 5.636 15.866 10.453 11.43 13.909 C 4.681 19.243 0.571 25.557 0.571 33.449 C 0.571 43.519 8.436 54.486 21.336 54.486 C 34.236 54.486 42.047 43.519 42.047 33.449 C 42.047 25.557 37.964 19.243 31.188 13.909 Z"
    fill="#000" style="stroke-width: 1;" />
  <path fill-rule="evenodd" clip-rule="evenodd"
    d="M 23.699 23.098 C 21.556 23.098 19.633 24.039 18.32 25.526 C 18.124 25.501 17.924 25.489 17.722 25.489 C 15.081 25.489 12.94 27.63 12.94 30.27 C 12.94 30.321 12.941 30.371 12.943 30.421 C 10.879 30.951 9.354 32.823 9.354 35.052 C 9.354 37.693 11.495 39.834 14.136 39.834 L 28.481 39.834 C 31.122 39.834 33.263 37.693 33.263 35.052 C 33.263 33.27 32.289 31.718 30.845 30.895 C 30.863 30.689 30.872 30.481 30.872 30.27 C 30.872 26.309 27.661 23.098 23.699 23.098 Z M 19.778 27.534 C 20.644 26.295 22.078 25.489 23.699 25.489 C 26.34 25.489 28.481 27.63 28.481 30.27 C 28.481 30.643 28.439 31.005 28.359 31.351 C 28.218 31.964 28.575 32.581 29.177 32.764 C 30.159 33.062 30.872 33.975 30.872 35.052 C 30.872 36.373 29.802 37.443 28.481 37.443 L 14.136 37.443 C 12.815 37.443 11.745 36.373 11.745 35.052 C 11.745 33.732 12.815 32.661 14.136 32.661 C 14.182 32.661 14.229 32.663 14.274 32.665 C 14.674 32.688 15.059 32.509 15.299 32.188 C 15.539 31.868 15.602 31.449 15.468 31.071 C 15.38 30.823 15.331 30.553 15.331 30.27 C 15.331 28.95 16.402 27.88 17.722 27.88 C 17.974 27.88 18.215 27.918 18.44 27.989 C 18.937 28.145 19.479 27.961 19.778 27.534 Z"
    fill="white" style="stroke-width: 1;" />
  <path
    d="M 11.745 42.225 C 11.085 42.225 10.55 42.76 10.55 43.42 C 10.55 44.08 11.085 44.616 11.745 44.616 L 12.94 44.616 C 13.601 44.616 14.136 44.08 14.136 43.42 C 14.136 42.76 13.601 42.225 12.94 42.225 L 11.745 42.225 Z"
    fill="white" style="stroke-width: 1;" />
  <path
    d="M 15.331 43.42 C 15.331 42.76 15.866 42.225 16.527 42.225 L 17.722 42.225 C 18.382 42.225 18.918 42.76 18.918 43.42 C 18.918 44.08 18.382 44.616 17.722 44.616 L 16.527 44.616 C 15.866 44.616 15.331 44.08 15.331 43.42 Z"
    fill="white" style="stroke-width: 1;" />
  <path
    d="M 21.308 42.225 C 20.648 42.225 20.113 42.76 20.113 43.42 C 20.113 44.08 20.648 44.616 21.308 44.616 L 30.872 44.616 C 31.532 44.616 32.068 44.08 32.068 43.42 C 32.068 42.76 31.532 42.225 30.872 42.225 L 21.308 42.225 Z"
    fill="white" style="stroke-width: 1;" />
</svg>
