<?xml version="1.0" encoding="utf-8"?>
<svg xmlns="http://www.w3.org/2000/svg" viewBox="0 -2.828 53.522 62.584">
  <path
    d="M 36.915 14.951 C 32.463 11.449 29.64 6.563 28.174 3.685 L 27.441 2.138 C 27.298 1.841 26.875 1.84 26.731 2.136 L 26.491 2.627 L 25.948 3.794 C 24.482 6.699 21.631 11.504 17.206 14.951 C 10.474 20.272 6.375 26.57 6.375 34.443 C 6.375 44.487 14.22 55.427 27.088 55.427 C 39.956 55.427 47.747 44.487 47.747 34.443 C 47.747 26.57 43.675 20.272 36.915 14.951 Z"
    fill="#000" style="stroke-width: 1;" />
  <path fill-rule="evenodd" clip-rule="evenodd"
    d="M 17.521 24.117 C 16.863 24.117 16.329 24.651 16.329 25.31 L 16.329 39.619 C 16.329 40.278 16.863 40.812 17.521 40.812 L 31.831 40.812 C 32.489 40.812 33.023 40.278 33.023 39.619 L 33.023 25.31 C 33.023 24.651 32.489 24.117 31.831 24.117 L 17.521 24.117 Z M 18.714 31.272 L 18.714 26.502 L 30.638 26.502 L 30.638 31.272 L 18.714 31.272 Z M 25.869 33.657 L 30.638 33.657 L 30.638 38.427 L 25.869 38.427 L 25.869 33.657 Z M 23.484 33.657 L 23.484 38.427 L 18.714 38.427 L 18.714 33.657 L 23.484 33.657 Z"
    fill="white" style="stroke-width: 1;" />
  <path
    d="M 37.793 30.079 C 37.793 29.421 37.259 28.887 36.601 28.887 C 35.942 28.887 35.408 29.421 35.408 30.079 L 35.408 43.196 L 22.291 43.196 C 21.633 43.196 21.099 43.73 21.099 44.389 C 21.099 45.047 21.633 45.581 22.291 45.581 L 36.601 45.581 C 37.259 45.581 37.793 45.047 37.793 44.389 L 37.793 30.079 Z"
    fill="white" style="stroke-width: 1;" />
</svg>
