<svg xmlns="http://www.w3.org/2000/svg" width="202" height="60" viewBox="0 0 202 60" fill="none">
  <path
    d="M71.4184 34.7688L64.8914 25.2409H68.4622C69.5946 25.2409 70.6552 25.8034 71.2921 26.7401L74.0848 30.8536L76.8899 26.7376C77.5267 25.8034 78.5848 25.2434 79.7173 25.2434H83.2806L76.7684 34.7713L83.2806 44.1729H79.6305C78.5006 44.1729 77.4449 43.6153 76.8081 42.6836L74.0897 38.7064L71.3813 42.6811C70.7444 43.6153 69.6863 44.1753 68.5538 44.1753H65.0202L71.4209 34.7738L71.4184 34.7688Z"
    fill="#000000" />
  <path
    d="M106.405 18.5478H107.374C109.262 18.5478 110.794 20.0792 110.794 21.9674V44.1704H107.149C106.737 44.1704 106.405 43.8383 106.405 43.427V18.5478Z"
    fill="#000000" />
  <path
    d="M139.653 25.2434H141.142V28.492C142.141 26.4006 142.926 25.3871 144.591 25.2434C145.85 25.2434 146.871 26.2643 146.871 27.5231V29.0471H145.285C142.968 29.0471 141.457 30.7173 141.167 32.9376V44.1729H136.724V28.1748C136.724 26.5567 138.037 25.2434 139.655 25.2434H139.653Z"
    fill="#000000" />
  <path
    d="M174.043 25.2434H175.517V28.0039C176.883 26.0834 178.605 25.2458 181.07 25.2458C184.785 25.2458 187.285 27.3918 187.285 31.5548V44.1753H182.865V32.1967C182.865 30.7123 181.343 29.0496 179.197 29.0496C177.051 29.0496 175.53 30.8164 175.53 33.0293V44.1753H171.109V28.1773C171.109 26.5592 172.422 25.2458 174.04 25.2458L174.043 25.2434Z"
    fill="#000000" />
  <path
    d="M94.407 40.9217C91.6837 40.9217 89.9714 39.2367 89.6542 35.9062H98.8501C101.152 35.9062 102.879 33.7652 102.359 31.5226C101.402 27.4067 98.3793 25.2434 94.1989 25.2434C88.6927 25.2434 85.2632 28.9926 85.2632 34.7267C85.2632 40.7483 89.0124 44.1729 94.3302 44.1729C98.4685 44.1729 101.578 42.1161 102.394 39.0087C102.627 38.1117 102.629 37.7672 102.629 37.7672H98.6568C98.2678 39.6232 96.7463 40.9242 94.4095 40.9242L94.407 40.9217ZM94.1097 28.492C95.9583 28.492 97.2865 29.4783 97.8416 30.98C98.186 31.9142 97.4401 32.8979 96.4464 32.8979H89.7162C90.1325 29.9838 91.7407 28.492 94.1097 28.492Z"
    fill="#000000" />
  <path
    d="M124.559 40.9217C121.836 40.9217 120.126 39.2367 119.807 35.9062H128.76C131.27 35.9062 133.071 33.5075 132.4 31.089C131.337 27.2555 128.383 25.2409 124.351 25.2409C118.845 25.2409 115.416 28.9901 115.416 34.7242C115.416 40.7458 119.165 44.1704 124.483 44.1704C128.621 44.1704 131.731 42.1136 132.546 39.0062C132.779 38.1092 132.781 37.7647 132.781 37.7647H128.809C128.42 39.6208 126.899 40.9192 124.559 40.9192V40.9217ZM124.267 28.492C126.076 28.492 127.34 29.5799 127.912 31.032C128.294 31.9959 127.59 33.0441 126.552 33.0441H119.824C120.24 30.13 121.898 28.492 124.267 28.492Z"
    fill="#000000" />
  <path
    d="M53.1309 25.2434C50.1053 25.2434 47.7214 25.7588 46.3115 27.0796C45.8382 27.5231 45.4888 28.0063 45.2335 28.4846C44.4926 29.8723 45.4987 31.5524 47.0722 31.5524H48.9654C48.9382 29.5006 50.6926 28.5094 53.064 28.5094C55.3091 28.5094 56.2037 29.3767 56.2037 30.7544C56.2037 31.8076 55.7527 32.4172 54.1841 32.6749L50.249 33.3787C46.9458 33.956 44.5471 35.6237 44.5471 39.0211C44.5471 42.0938 46.8195 44.1753 50.6331 44.1753C52.903 44.1753 55.3314 42.7728 56.1739 42.0046V44.1753H60.5947V30.98C60.5947 27.2976 58.191 25.2458 53.1309 25.2458V25.2434ZM56.1764 37.3113C56.1764 38.5304 55.5693 39.7001 54.5112 40.3047C53.8223 40.6987 52.955 40.9069 51.9489 40.9069C50.1871 40.9069 49.0348 40.1387 49.0348 38.6345C49.0348 37.5417 49.6444 36.5827 51.6912 36.1664L54.1593 35.6882C55.148 35.4949 55.6957 35.3313 56.1764 35.1108V37.3137V37.3113Z"
    fill="#000000" />
  <path
    d="M158.404 25.2434C155.378 25.2434 152.995 25.7588 151.585 27.0796C151.158 27.4785 150.834 27.9097 150.588 28.3409C149.768 29.7707 150.792 31.5524 152.44 31.5548H154.241C154.214 29.5031 155.968 28.5119 158.34 28.5119C160.585 28.5119 161.479 29.3792 161.479 30.7569C161.479 31.8101 161.028 32.4197 159.46 32.6774L155.525 33.3811C152.221 33.9585 149.823 35.6262 149.823 39.0236C149.823 42.0963 152.095 44.1778 155.909 44.1778C158.179 44.1778 160.607 42.7753 161.45 42.0071V44.1778H165.87V30.9824C165.87 27.3001 163.467 25.2483 158.407 25.2483L158.404 25.2434ZM161.45 37.3013C161.45 38.6073 160.743 39.8413 159.569 40.4187C158.917 40.7383 158.127 40.9069 157.22 40.9069C155.458 40.9069 154.305 40.1387 154.305 38.6345C154.305 37.5417 154.915 36.5827 156.962 36.1664L159.43 35.6882C160.419 35.4949 160.966 35.3313 161.447 35.1108V37.3038L161.45 37.3013Z"
    fill="#000000" />
  <path
    d="M197.933 38.7287C197.933 40.0742 198.107 40.4187 199.291 40.4187H201.12V44.1729H197.708C194.856 44.1729 193.49 42.8273 193.49 40.265V29.0198H190.247V27.372C190.247 27.0969 190.291 26.8318 190.375 26.5889C190.621 25.8629 191.203 25.335 191.899 25.2533H193.49V20.3369H197.931V25.2434H201.118V26.6558C201.118 26.973 201.063 27.2753 200.966 27.5504C200.964 27.5578 200.962 27.5653 200.959 27.5727C200.652 28.4227 199.817 28.9653 198.915 28.9653H197.931V38.7287H197.933Z"
    fill="#000000" />
  <path
    d="M193.493 25.2434V25.2558H191.902C191.964 25.2483 192.026 25.2434 192.09 25.2434H193.495H193.493Z"
    fill="#000000" />
  <path
    d="M199.524 28.9629C199.383 28.9976 199.237 29.0174 199.083 29.0174H197.933V28.9629H199.524Z"
    fill="#000000" />
  <path
    d="M23.9423 35.8047L5.04998 57.9879L1.64518 54.5806C-0.426431 52.5065 -0.557758 49.1909 1.34287 46.9607L11.3119 35.2571L2.47781 26.4106C-0.619704 23.3081 -0.815469 18.3496 2.02681 15.0118L3.4814 13.3044L23.8605 33.7083C24.4305 34.2783 24.4676 35.1902 23.9448 35.8047H23.9423Z"
    fill="#FC5806" />
  <path
    d="M37.4722 19.9207L35.1181 22.6837L25.553 13.1062C22.4555 10.0062 22.2598 5.04523 25.102 1.70736L26.5566 1.52588e-05L37.1005 10.5588C39.6454 13.1062 39.8065 17.18 37.4722 19.9207Z"
    fill="#FC5806" />
  <path
    d="M33.7403 24.3018L28.3407 30.643C27.7559 31.3319 26.7077 31.3716 26.0684 30.7323L17.6878 22.3417C14.5903 19.2417 14.3945 14.2808 17.2368 10.9454L18.6939 9.23554L33.7428 24.3043L33.7403 24.3018Z"
    fill="#FC5806" />
  <path
    d="M20.9786 44.9337L26.3781 38.5925C26.963 37.9036 28.0111 37.864 28.6505 38.5033L36.4289 46.2917C39.8659 49.7336 40.084 55.2373 36.9295 58.9394L36.025 60L20.9761 44.9312L20.9786 44.9337Z"
    fill="#FC5806" />
</svg>
