<?xml version="1.0" encoding="UTF-8"?>
<svg version="1.1" xmlns="http://www.w3.org/2000/svg" width="1008" height="1008">
<path d="M0 0 C0.94247589 -0.00067474 1.88495178 -0.00134949 2.85598755 -0.00204468 C58.50745971 0.06078526 113.29888909 12.33595759 163.5625 36.25 C164.44679688 36.66604492 165.33109375 37.08208984 166.2421875 37.51074219 C191.02671593 49.24245778 214.14834415 64.14741916 235.5625 81.25 C236.95662109 82.35408203 236.95662109 82.35408203 238.37890625 83.48046875 C244.40594405 88.3243896 250.1262231 93.43762084 255.7890625 98.6953125 C258.03327035 100.76251241 260.30435859 102.7703508 262.625 104.75 C270.54904902 111.63401758 277.76889709 119.26161213 284.5625 127.25 C285.83287109 128.68666016 285.83287109 128.68666016 287.12890625 130.15234375 C347.0435414 198.21021973 379.88676439 287.64658981 379.75 378.125 C379.74906342 378.93391693 379.74812683 379.74283386 379.74716187 380.57626343 C379.51623642 473.20694332 344.87990685 562.12000642 266.5625 649.25 C258.29167034 657.40474784 249.65272689 665.02056644 240.5625 672.25 C239.50478212 673.13204619 238.44888633 674.01628057 237.39453125 674.90234375 C221.13467278 688.43143315 203.0856961 700.06166414 184.5625 710.25 C183.66547363 710.74564453 182.76844727 711.24128906 181.84423828 711.75195312 C95.37407314 759.12419204 -8.67055141 770.13180459 -103.4375 743.25 C-150.76965371 729.22315284 -194.82265913 707.0900407 -233.4375 676.25 C-234.36691406 675.51394531 -235.29632813 674.77789063 -236.25390625 674.01953125 C-242.28094405 669.1756104 -248.0012231 664.06237916 -253.6640625 658.8046875 C-255.90827035 656.73748759 -258.17935859 654.7296492 -260.5 652.75 C-268.42404902 645.86598242 -275.64389709 638.23838787 -282.4375 630.25 C-283.70787109 628.81333984 -283.70787109 628.81333984 -285.00390625 627.34765625 C-335.35744444 570.15036466 -365.69257612 498.51735583 -375.4375 423.25 C-375.61539063 421.92476318 -375.61539063 421.92476318 -375.796875 420.57275391 C-388.08403487 324.96329115 -358.46269616 224.92004022 -300.24609375 148.8671875 C-294.06202041 140.87166023 -287.60304445 133.21986963 -280.75390625 125.78515625 C-278.87020677 123.72356947 -277.05113292 121.63279934 -275.25 119.5 C-267.08123525 110.10592054 -257.99188987 101.22410105 -248.4375 93.25 C-247.51195312 92.44691406 -246.58640625 91.64382812 -245.6328125 90.81640625 C-177.84683172 32.17034655 -89.41242009 0.05798025 0 0 Z M-251.4375 151.25 C-254.62219875 154.77209299 -257.52945566 158.49836081 -260.4375 162.25 C-261.39697466 163.43453661 -262.35942225 164.61666895 -263.32421875 165.796875 C-274.60338697 177.69434782 -274.60338697 177.69434782 -281.4375 191.25 C-275.35976717 192.13134177 -269.45086068 192.44271792 -263.3125 192.4375 C-262.2719043 192.43669434 -261.23130859 192.43588867 -260.15917969 192.43505859 C-233.04539341 192.24187571 -205.87830679 190.68081781 -178.84765625 188.6171875 C-165.84276225 187.67783451 -165.84276225 187.67783451 -159.4375 191.25 C-156.37083213 194.41559264 -156.18442054 197.44006444 -156 201.6875 C-156.17399158 206.65964403 -156.75443965 209.65677039 -160.4375 213.25 C-169.17909774 217.13840301 -178.5208615 217.19240238 -187.9375 217.8125 C-190.43513842 217.97947371 -192.93226696 218.14992051 -195.42883301 218.33226013 C-196.97400774 218.44500513 -198.51986235 218.54885373 -200.06628418 218.64295959 C-201.8633547 218.77346937 -203.65282167 219.00217235 -205.4375 219.25 C-206.65391308 221.15875704 -206.65391308 221.15875704 -206.04454041 223.03688049 C-205.80030838 223.76148972 -205.55607635 224.48609894 -205.30444336 225.23266602 C-205.02860916 226.06297836 -204.75277496 226.89329071 -204.46858215 227.74876404 C-204.15797348 228.65796097 -203.84736481 229.5671579 -203.52734375 230.50390625 C-203.20952438 231.45302383 -202.89170502 232.40214142 -202.56425476 233.38002014 C-201.5084068 236.52666559 -200.44175316 239.66953643 -199.375 242.8125 C-198.62816603 245.03089292 -197.88191655 247.24948269 -197.13623047 249.46826172 C-192.5598758 263.0649671 -187.92145521 276.64046697 -183.26095581 290.20852661 C-176.52027962 309.84445266 -169.99081442 329.55099113 -163.4375 349.25 C-153.5421646 379.0352952 -153.5421646 379.0352952 -143.4375 408.75 C-136.32445617 429.4009214 -129.46347122 450.13609047 -122.56899261 470.86071014 C-115.44567639 492.27235568 -108.30090081 513.67428313 -100.96826172 535.01538086 C-95.34396528 551.38883373 -89.88266826 567.81623428 -84.4375 584.25 C-83.7775 584.25 -83.1175 584.25 -82.4375 584.25 C-72.97269885 556.67834049 -63.56384678 529.08815151 -54.23180229 501.47125874 C-53.12792848 498.2046582 -52.02358285 494.93821735 -50.91894531 491.671875 C-50.69905657 491.02165195 -50.47916783 490.37142891 -50.25261579 489.70150213 C-46.69947352 479.19836658 -43.10834064 468.70860894 -39.50278844 458.22336598 C-35.79898359 447.44961367 -32.1377094 436.6622619 -28.51237476 425.86181009 C-26.47671052 419.80162667 -24.42272897 413.74916456 -22.32242203 407.71104813 C-20.34299574 402.01849942 -18.41584901 396.31079326 -16.52615929 390.58785439 C-15.82662483 388.49909464 -15.10877667 386.41635771 -14.37067223 384.34091377 C-9.6323562 370.97553916 -8.50003735 362.15173633 -14.59566325 349.08997351 C-15.80965605 346.43659137 -16.74703185 343.69886913 -17.69726562 340.94213867 C-18.40994013 339.0163693 -19.12548399 337.09165961 -19.84375 335.16796875 C-20.24199478 334.09287552 -20.64023956 333.01778229 -21.05055237 331.91011047 C-21.90261654 329.60990177 -22.75583297 327.31011959 -23.61013794 325.01074219 C-25.9230035 318.78453681 -28.22679243 312.5549825 -30.52734375 306.32421875 C-30.76615202 305.67759655 -31.00496029 305.03097435 -31.25100517 304.36475754 C-35.07059104 294.01677433 -38.83424809 283.64934489 -42.56640625 273.26953125 C-42.81670467 272.57366598 -43.0670031 271.87780071 -43.32488632 271.16084862 C-45.76744946 264.3690702 -48.20563297 257.57574626 -50.63475132 250.77914715 C-51.3159633 248.87457849 -51.99863124 246.97053877 -52.68186951 245.06669617 C-53.51290409 242.75026574 -54.3412917 240.43288311 -55.16639709 238.11433411 C-58.07307068 227.34795699 -58.07307068 227.34795699 -64.4375 219.25 C-66.79909134 218.99111937 -69.16644556 218.7841618 -71.53515625 218.6015625 C-72.9915702 218.48218176 -74.44794936 218.36237593 -75.90429688 218.2421875 C-78.19230092 218.05768285 -80.48041025 217.87648372 -82.76928711 217.703125 C-103.94051264 216.08183241 -103.94051264 216.08183241 -108.4765625 210.9375 C-109.56811332 207.88470745 -109.83729856 205.49034484 -109.8125 202.25 C-109.82023438 201.239375 -109.82796875 200.22875 -109.8359375 199.1875 C-109.36246366 195.69679092 -108.68827757 193.96930678 -106.4375 191.25 C-101.45206158 188.66743585 -98.15474849 187.90734353 -92.4609375 188.32421875 C-91.79432602 188.36747787 -91.12771454 188.410737 -90.44090271 188.45530701 C-88.99221095 188.55099107 -87.54400752 188.65431289 -86.09634399 188.76446533 C-82.93903098 189.00367808 -79.77952588 189.20290527 -76.61964417 189.40484619 C-74.9187097 189.51380907 -73.21789465 189.62465021 -71.51719666 189.73724365 C-26.42576673 192.70141352 18.20112406 192.54356794 63.2890625 189.56640625 C64.95141247 189.46006824 66.61376589 189.35378424 68.27612305 189.24755859 C71.34712546 189.05043992 74.4152663 188.83033562 77.48364258 188.59619141 C78.86274382 188.5047892 80.24189186 188.41408938 81.62109375 188.32421875 C82.79986084 188.23744873 83.97862793 188.15067871 85.19311523 188.0612793 C90.05235651 188.33344751 94.03158902 189.6697048 97.5 193.25 C99.46615729 198.80150292 99.54823364 204.75972553 97.375 210.25 C88.80113779 219.71081347 70.25997992 217.78530934 58.54248047 218.46508789 C57.3979541 218.53848389 56.25342773 218.61187988 55.07421875 218.6875 C54.03740967 218.74808594 53.00060059 218.80867187 51.93237305 218.87109375 C51.15031494 218.99613281 50.36825684 219.12117187 49.5625 219.25 C48.2230734 221.37292557 48.2230734 221.37292557 49.41534424 224.37184143 C49.87232951 225.73952423 50.33780863 227.10438453 50.80957031 228.46704102 C51.18843431 229.59009785 51.18843431 229.59009785 51.57495213 230.7358427 C52.42313274 233.24431243 53.28192967 235.74901831 54.140625 238.25390625 C54.74114241 240.02359029 55.34095701 241.79351296 55.94010925 243.56365967 C57.22112515 247.34391343 58.50668032 251.12258023 59.79586792 254.90005493 C61.81655334 260.82113617 63.82748795 266.74549574 65.83618164 272.6706543 C66.50787852 274.65175214 67.17958567 276.6328465 67.8513031 278.61393738 C68.18318571 279.59279593 68.51506832 280.57165447 68.85700798 281.5801754 C69.86490306 284.55165642 70.8737932 287.52279791 71.88294983 290.49385071 C77.3171528 306.49646263 82.67700404 322.52257659 88 338.5625 C93.23363768 354.31588299 98.52110025 370.04782932 103.91867065 385.74575806 C110.90049902 406.07075344 117.64896401 426.47413717 124.43271637 446.8658371 C131.14333389 467.03681621 137.85712603 487.20474918 144.77203369 507.30685425 C153.22555229 531.88995524 161.3683181 556.57952706 169.5625 581.25 C170.2225 581.25 170.8825 581.25 171.5625 581.25 C172.11055298 579.41245148 172.11055298 579.41245148 172.66967773 577.53778076 C176.1942352 565.72149996 179.72123479 553.90595022 183.25035095 542.09103012 C185.06256891 536.02375319 186.87406059 529.95626185 188.68359375 523.88818359 C190.78667743 516.83620062 192.89221991 509.78495568 195 502.734375 C195.3500239 501.56339705 195.7000478 500.39241909 196.06067848 499.18595695 C202.04616216 479.17686963 208.15507238 459.20713955 214.35900879 439.26470947 C218.97867491 424.38004083 223.30890824 409.50294943 226.5625 394.25 C226.74586914 393.43192871 226.92923828 392.61385742 227.11816406 391.77099609 C237.93488617 342.3157932 220.28274491 296.212864 194.3449707 254.92822266 C179.47409978 231.22992454 164.50721537 204.12118536 170.28125 175.08984375 C174.39476447 158.78506664 182.75005713 144.4814401 197.3828125 135.5234375 C206.99157824 130.43054078 216.78694237 128.14796314 227.5625 127.25 C222.02162422 119.91648793 214.83767436 114.73249678 207.5625 109.25 C206.96759766 108.7957666 206.37269531 108.3415332 205.75976562 107.87353516 C147.46419471 63.41434424 75.42291643 39.06432033 2.125 39 C1.41928864 38.99932526 0.71357727 38.99865051 -0.01351929 38.99795532 C-97.1283433 39.14299386 -185.26481174 81.55092281 -251.4375 151.25 Z M300.5625 220.25 C300.57249275 221.16604004 300.57249275 221.16604004 300.58268738 222.10058594 C300.65027106 228.59223024 300.69479636 235.08377119 300.72729492 241.57568359 C300.74216638 243.98230054 300.76246961 246.3888915 300.78881836 248.79541016 C301.00667098 269.23938348 299.70490964 289.23235038 295.3125 309.25 C295.09980469 310.23395752 294.88710938 311.21791504 294.66796875 312.23168945 C289.90429795 333.61887004 282.57983991 354.12829018 275.23681641 374.73020935 C271.97332912 383.88997642 268.76416795 393.06847384 265.5625 402.25 C265.25997314 403.11678375 264.95744629 403.9835675 264.64575195 404.87661743 C258.27080757 423.14618865 251.98012232 441.44472019 245.68966675 459.74349976 C240.20546415 475.69630891 234.69900117 491.64080176 229.125 507.5625 C222.62449278 526.13121343 216.23031224 544.73592816 209.84379578 563.34405899 C203.72880642 581.16056759 197.59133385 598.96852328 191.375 616.75 C190.77855821 618.45822136 190.18220233 620.16647272 189.5859375 621.87475586 C185.10100456 634.72094928 185.10100456 634.72094928 182.85302734 641.11376953 C181.49849775 644.96609693 180.15082231 648.82075439 178.80819702 652.67724609 C178.31715226 654.08332017 177.82342455 655.48846061 177.32681274 656.89257812 C176.65896138 658.78145299 176.00104718 660.67383284 175.34375 662.56640625 C174.97314453 663.62287354 174.60253906 664.67934082 174.22070312 665.76782227 C173.27557298 668.2274188 173.27557298 668.2274188 174.5625 670.25 C193.65383812 659.46296591 211.05772643 646.11544391 227.2421875 631.3515625 C229.25647731 629.52717206 231.30398614 627.75906198 233.375 626 C237.10388907 622.74859063 240.61990463 619.30112077 244.125 615.8125 C244.65520752 615.28688477 245.18541504 614.76126953 245.73168945 614.21972656 C249.87308046 610.06238504 253.74464077 605.70461576 257.5625 601.25 C258.10350342 600.62101807 258.64450684 599.99203613 259.2019043 599.34399414 C272.52964814 583.73483399 284.475981 567.13593019 294.5625 549.25 C295.02366211 548.43837402 295.48482422 547.62674805 295.95996094 546.79052734 C320.25477608 503.83596641 334.61385874 457.34792112 339.5625 408.25 C339.67053955 407.17975586 339.67053955 407.17975586 339.78076172 406.08789062 C345.84005512 341.9911742 330.60680651 277.21552491 301.5625 220.25 C301.2325 220.25 300.9025 220.25 300.5625 220.25 Z M-310.4375 243.25 C-345.35092702 326.35509889 -348.43078016 419.24651275 -315.15136719 503.50634766 C-300.3331057 539.56191709 -280.24797651 574.03393292 -253.703125 602.7734375 C-251.82603839 604.82528734 -250.00375363 606.90660954 -248.1875 609.01171875 C-244.35169482 613.40516102 -240.31299932 617.56668715 -236.1875 621.6875 C-235.44024658 622.43394775 -234.69299316 623.18039551 -233.9230957 623.94946289 C-229.14889842 628.67112289 -224.30946307 633.08661586 -219.01953125 637.2265625 C-216.21145527 639.42714247 -213.52007665 641.73962639 -210.8125 644.0625 C-194.55056748 657.58975581 -176.36609614 669.06845085 -157.75 679.0625 C-156.82356689 679.55991699 -156.82356689 679.55991699 -155.87841797 680.06738281 C-152.82125105 681.73969759 -152.82125105 681.73969759 -149.4375 682.25 C-150.85648088 674.49290454 -153.48362568 667.29976358 -156.25338745 659.94168091 C-157.83295467 655.74330948 -159.3908793 651.53687156 -160.953125 647.33203125 C-161.30160995 646.39578415 -161.65009491 645.45953705 -162.00914001 644.49491882 C-166.60953546 632.12389001 -171.12211868 619.72066554 -175.6428833 607.32038116 C-176.87599094 603.93849735 -178.10988124 600.55689915 -179.34375 597.17529297 C-180.85620516 593.03009562 -182.36862771 588.88488641 -183.8807373 584.73956299 C-187.1180152 575.86498933 -190.35741702 566.99119391 -193.59865761 558.11806679 C-195.77428802 552.16211135 -197.94965816 546.20606084 -200.125 540.25 C-200.36386051 539.59601604 -200.60272102 538.94203209 -200.84881973 538.26823044 C-206.10646282 523.87278256 -211.35943796 509.47568569 -216.58984375 495.0703125 C-217.21086723 493.36000351 -217.21086723 493.36000351 -217.84443665 491.61514282 C-218.67261371 489.3342308 -219.50078453 487.05331651 -220.32894897 484.7723999 C-220.73602081 483.65125793 -221.14309265 482.53011597 -221.5625 481.375 C-221.96900787 480.25530823 -222.37551575 479.13561646 -222.79434204 477.98199463 C-229.50821811 459.49489597 -236.30265406 441.03830261 -243.11898804 422.58877563 C-250.3690191 402.95624316 -257.50029038 383.28285202 -264.58454895 363.59010315 C-270.45009415 347.28514019 -276.33702989 330.98971995 -282.35305786 314.73959351 C-288.06623534 299.30657454 -293.69256167 283.84215225 -299.3125 268.375 C-299.54113991 267.74577888 -299.76977982 267.11655777 -300.00534821 266.46826935 C-302.81739011 258.72932708 -305.62815161 250.98992045 -308.4375 243.25 C-309.0975 243.25 -309.7575 243.25 -310.4375 243.25 Z M6.5625 410.25 C6.31654587 410.96724747 6.07059174 411.68449493 5.81718445 412.42347717 C-4.74000428 443.2085561 -15.29832623 473.99313676 -25.9375 504.75 C-32.71945086 524.35630674 -39.46807917 543.97383923 -46.19921112 563.59763336 C-62.17861033 610.18309159 -78.27991224 656.72604796 -94.4375 703.25 C-77.12916482 720.55833518 -22.25330908 718.37952216 1.0625 718.5 C38.33760867 718.30739143 77.82597931 713.41884396 112.5625 699.25 C110.15402527 691.906166 107.57302542 684.63267911 104.94921875 677.36328125 C104.50347504 676.12604813 104.05773132 674.888815 103.59848022 673.61408997 C102.39924235 670.2861326 101.19840447 666.95875491 99.99702835 663.63156891 C99.24423466 661.54653154 98.49181503 659.46135949 97.73947144 657.37615967 C91.55722244 640.24362772 85.34188324 623.12430086 79.02197266 606.04199219 C73.51304005 591.14796674 68.06791973 576.23073995 62.625 561.3125 C62.13081971 559.95810916 61.63663839 558.6037187 61.14245605 557.24932861 C59.13463241 551.74640875 57.12695741 546.24343468 55.11956787 540.74035645 C51.63930612 531.19976056 48.15637574 521.66014218 44.671875 512.12109375 C32.27228957 478.17486304 19.90205121 444.21810551 7.5625 410.25 C7.2325 410.25 6.9025 410.25 6.5625 410.25 Z " fill="#464442" transform="translate(505.4375,127.75)"/>
</svg>
